<svg width="30" height="30" viewBox="0 0 30 30" fill="none" xmlns="http://www.w3.org/2000/svg">
<path d="M27.4421 30L17.1186 19.6746C12.5261 22.9396 6.19787 22.141 2.56057 17.8374C-1.07673 13.5338 -0.80965 7.16096 3.17498 3.17679C7.15856 -0.809128 13.532 -1.07736 17.8364 2.55975C22.1408 6.19686 22.9399 12.5257 19.6746 17.1186L29.9982 27.4439L27.4439 29.9982L27.4421 30ZM10.8377 3.61391C7.41225 3.61314 4.45696 6.01767 3.76111 9.37171C3.06525 12.7258 4.82008 16.1075 7.96316 17.4694C11.1062 18.8314 14.7737 17.7993 16.7451 14.998C18.7165 12.1966 18.45 8.39604 16.107 5.89722L17.1999 6.98106L15.9679 5.75271L15.9462 5.73103C14.5946 4.37113 12.755 3.60874 10.8377 3.61391Z" fill="black"/>
</svg>
