<svg width="30" height="30" viewBox="0 0 30 30" fill="none" xmlns="http://www.w3.org/2000/svg">
<path d="M17.2838 30H11.8238C11.119 30 10.5092 29.5095 10.3583 28.821L9.74783 25.995C8.93341 25.6382 8.16117 25.1919 7.44533 24.6645L4.68983 25.542C4.01783 25.7563 3.28731 25.4735 2.93483 24.8625L0.198833 20.136C-0.149785 19.5248 -0.0296794 18.7537 0.488333 18.2775L2.62583 16.3275C2.52863 15.4442 2.52863 14.5528 2.62583 13.6695L0.488333 11.724C-0.0304424 11.2476 -0.150596 10.4756 0.198833 9.864L2.92883 5.1345C3.28131 4.52355 4.01183 4.2407 4.68383 4.455L7.43933 5.3325C7.80543 5.06123 8.18653 4.81084 8.58083 4.5825C8.95934 4.36904 9.34889 4.17577 9.74783 4.0035L10.3598 1.1805C10.5099 0.491953 11.1191 0.000741589 11.8238 0H17.2838C17.9886 0.000741589 18.5977 0.491953 18.7478 1.1805L19.3658 4.005C19.787 4.19027 20.1972 4.39962 20.5943 4.632C20.9647 4.84622 21.3228 5.08109 21.6668 5.3355L24.4238 4.458C25.0954 4.2445 25.825 4.52724 26.1773 5.1375L28.9073 9.867C29.256 10.4782 29.1358 11.2493 28.6178 11.7255L26.4803 13.6755C26.5775 14.5588 26.5775 15.4502 26.4803 16.3335L28.6178 18.2835C29.1358 18.7597 29.256 19.5308 28.9073 20.142L26.1773 24.8715C25.825 25.4818 25.0954 25.7645 24.4238 25.551L21.6668 24.6735C21.318 24.9304 20.9554 25.1683 20.5808 25.386C20.1876 25.6139 19.7819 25.8197 19.3658 26.0025L18.7478 28.821C18.5971 29.509 17.9881 29.9994 17.2838 30ZM7.98383 21.3435L9.21383 22.2435C9.49111 22.4477 9.7801 22.6356 10.0793 22.806C10.3609 22.9691 10.6508 23.1173 10.9478 23.25L12.3473 23.8635L13.0328 27H16.0778L16.7633 23.862L18.1628 23.2485C18.7738 22.9791 19.3537 22.6441 19.8923 22.2495L21.1238 21.3495L24.1853 22.3245L25.7078 19.6875L23.3333 17.523L23.5013 16.005C23.5751 15.341 23.5751 14.671 23.5013 14.007L23.3333 12.489L25.7093 10.32L24.1853 7.6815L21.1238 8.6565L19.8923 7.7565C19.3535 7.36007 18.7737 7.02263 18.1628 6.75L16.7633 6.1365L16.0778 3H13.0328L12.3443 6.138L10.9478 6.75C10.6505 6.88057 10.3606 7.02728 10.0793 7.1895C9.78194 7.35949 9.49447 7.5463 9.21833 7.749L7.98683 8.649L4.92683 7.674L3.40133 10.32L5.77583 12.4815L5.60783 14.001C5.53404 14.665 5.53404 15.335 5.60783 15.999L5.77583 17.517L3.40133 19.6815L4.92383 22.3185L7.98383 21.3435ZM14.5478 21C11.2341 21 8.54783 18.3137 8.54783 15C8.54783 11.6863 11.2341 9 14.5478 9C17.8615 9 20.5478 11.6863 20.5478 15C20.5437 18.312 17.8598 20.9959 14.5478 21ZM14.5478 12C12.9089 12.0017 11.5747 13.3183 11.5512 14.957C11.5277 16.5957 12.8237 17.9501 14.4619 17.9987C16.1001 18.0473 17.4741 16.7722 17.5478 15.135V15.735V15C17.5478 13.3431 16.2047 12 14.5478 12Z" fill="black"/>
</svg>
